<svg width="150" height="60" viewBox="0 0 150 60" fill="none" xmlns="http://www.w3.org/2000/svg">
<path d="M5.96 15.7639H27.96L27.2 21.3639H12.36L11.6 26.9639H25.2L17.88 32.5639H10.8L10.04 38.1639H25.2L24.44 43.7639H2.04L5.96 15.7639Z" fill="black"/>
<path d="M34.9508 27.0439C36.4442 27.0439 37.6175 26.7906 38.4708 26.2839C39.3508 25.7772 39.8708 24.9372 40.0308 23.7639C40.1108 23.1506 39.8842 22.6039 39.3508 22.1239C38.8175 21.6172 38.0442 21.3639 37.0308 21.3639H26.1908L23.7508 15.7639H40.3108C41.8575 15.7639 43.0975 16.0172 44.0308 16.5239C44.9908 17.0306 45.7108 17.6839 46.1908 18.4839C46.6975 19.2839 47.0042 20.1772 47.1108 21.1639C47.2175 22.1506 47.2042 23.1239 47.0708 24.0839C46.6975 26.8306 45.6175 28.9506 43.8308 30.4439C42.0708 31.9106 39.7908 32.6439 36.9908 32.6439H33.5108C32.0442 32.6439 30.8842 32.8572 30.0308 33.2839C29.1775 33.6839 28.6842 34.3506 28.5508 35.2839L28.1108 38.1639H42.7508L45.1908 43.7639H20.3108L21.3508 36.2039C21.5908 34.5239 22.0042 33.1106 22.5908 31.9639C23.1775 30.7906 23.9108 29.8439 24.7908 29.1239C25.6975 28.3772 26.7375 27.8439 27.9108 27.5239C29.0842 27.2039 30.3775 27.0439 31.7908 27.0439H34.9508Z" fill="#41499F"/>
<path d="M45.3659 12.4H70.7099C72.0219 12.4 73.1739 12.608 74.1659 13.024C75.1579 13.44 75.9739 14.032 76.6139 14.8C77.2859 15.536 77.7499 16.432 78.0059 17.488C78.2939 18.544 78.3419 19.728 78.1499 21.04L75.8459 37.36C75.6539 38.64 75.2699 39.808 74.6939 40.864C74.1499 41.888 73.4459 42.768 72.5819 43.504C71.7179 44.24 70.7259 44.832 69.6059 45.28C68.5179 45.696 67.3179 45.936 66.0059 46H40.6619L45.3659 12.4ZM50.2619 39.28H62.2619C63.6699 39.28 64.8699 38.816 65.8619 37.888C66.8539 36.928 67.4619 35.664 67.6859 34.096L69.0299 24.304C69.2539 22.736 69.0139 21.488 68.3099 20.56C67.6059 19.6 66.5499 19.12 65.1419 19.12H53.0459L50.2619 39.28Z" fill="black"/>
</svg>
