<svg width="163" height="176" viewBox="0 0 163 176" fill="none" xmlns="http://www.w3.org/2000/svg">
<path d="M5.96 34H27.96L27.2 39.6H12.36L11.6 45.2H25.2L17.88 50.8H10.8L10.04 56.4H25.2L24.44 62H2.04L5.96 34Z" fill="white"/>
<path d="M34.36 45.28C35.8533 45.28 37.0267 45.0267 37.88 44.52C38.76 44.0133 39.28 43.1733 39.44 42C39.52 41.3867 39.2933 40.84 38.76 40.36C38.2267 39.8533 37.4533 39.6 36.44 39.6H25.6L23.16 34H39.72C41.2667 34 42.5067 34.2533 43.44 34.76C44.4 35.2667 45.12 35.92 45.6 36.72C46.1067 37.52 46.4133 38.4133 46.52 39.4C46.6267 40.3867 46.6133 41.36 46.48 42.32C46.1067 45.0667 45.0267 47.1867 43.24 48.68C41.48 50.1467 39.2 50.88 36.4 50.88H32.92C31.4533 50.88 30.2933 51.0933 29.44 51.52C28.5867 51.92 28.0933 52.5867 27.96 53.52L27.52 56.4H42.16L44.6 62H19.72L20.76 54.44C21 52.76 21.4133 51.3467 22 50.2C22.5867 49.0267 23.32 48.08 24.2 47.36C25.1067 46.6133 26.1467 46.08 27.32 45.76C28.4933 45.44 29.7867 45.28 31.2 45.28H34.36Z" fill="white"/>
<path d="M44.152 28.4H69.496C70.808 28.4 71.96 28.608 72.952 29.024C73.944 29.44 74.76 30.032 75.4 30.8C76.072 31.536 76.536 32.432 76.792 33.488C77.08 34.544 77.128 35.728 76.936 37.04L74.632 53.36C74.44 54.64 74.056 55.808 73.48 56.864C72.936 57.888 72.232 58.768 71.368 59.504C70.504 60.24 69.512 60.832 68.392 61.28C67.304 61.696 66.104 61.936 64.792 62H39.448L44.152 28.4ZM49.048 55.28H61.048C62.456 55.28 63.656 54.816 64.648 53.888C65.64 52.928 66.248 51.664 66.472 50.096L67.816 40.304C68.04 38.736 67.8 37.488 67.096 36.56C66.392 35.6 65.336 35.12 63.928 35.12H51.832L49.048 55.28Z" fill="white"/>
<path d="M91.68 50.4L91.136 48.384L88.864 52.288L95.68 48.896L92.448 53.12L86.72 56H83.68L90.176 44.8H93.216L94.4 49.088L91.68 50.4ZM93.216 56L92.544 53.776L94.848 50.8L96.256 56H93.216ZM98.3215 44.8H106.77C107.207 44.8 107.591 44.8693 107.922 45.008C108.252 45.1467 108.524 45.344 108.738 45.6C108.962 45.8453 109.116 46.144 109.202 46.496C109.298 46.848 109.314 47.2427 109.25 47.68L108.482 53.12C108.418 53.5467 108.29 53.936 108.098 54.288C107.916 54.6293 107.682 54.9227 107.394 55.168C107.106 55.4133 106.775 55.6107 106.402 55.76C106.039 55.8987 105.639 55.9787 105.202 56H96.7535L98.3215 44.8ZM99.9535 53.76H103.954C104.423 53.76 104.823 53.6053 105.154 53.296C105.484 52.976 105.687 52.5547 105.762 52.032L106.21 48.768C106.284 48.2453 106.204 47.8293 105.97 47.52C105.735 47.2 105.383 47.04 104.914 47.04H100.882L99.9535 53.76ZM110.947 44.8H113.827L117.027 50.192L121.731 44.8H124.611L123.043 56H120.163L121.203 48.576L116.499 53.968L113.299 48.576L112.259 56H109.379L110.947 44.8ZM125.796 47.872L126.228 44.8H129.108L129.012 45.552L125.796 47.872ZM125.7 48.576L128.9 46.256L127.54 56H124.66L125.7 48.576ZM130.743 44.8H133.623L138.087 52.24L139.127 44.8H142.007L140.439 56H137.559L133.095 48.56L132.055 56H129.175L130.743 44.8Z" fill="white"/>
</svg>
