<svg width="321" height="462" viewBox="0 0 321 462" fill="none" xmlns="http://www.w3.org/2000/svg">
<path d="M24.304 52.8H77.104L75.28 66.24H39.664L37.84 79.68H70.48L52.912 93.12H35.92L34.096 106.56H70.48L68.656 120H14.896L24.304 52.8ZM24.304 360.8H74.992C77.616 360.8 79.92 361.216 81.904 362.048C83.888 362.88 85.52 364.064 86.8 365.6C88.144 367.072 89.072 368.864 89.584 370.976C90.16 373.088 90.256 375.456 89.872 378.08L85.264 410.72C84.88 413.28 84.112 415.616 82.96 417.728C81.872 419.776 80.464 421.536 78.736 423.008C77.008 424.48 75.024 425.664 72.784 426.56C70.608 427.392 68.208 427.872 65.584 428H14.896L24.304 360.8ZM34.096 414.56H58.096C60.912 414.56 63.312 413.632 65.296 411.776C67.28 409.856 68.496 407.328 68.944 404.192L71.632 384.608C72.08 381.472 71.6 378.976 70.192 377.12C68.784 375.2 66.672 374.24 63.856 374.24H39.664L34.096 414.56Z" fill="#41499F"/>
<path d="M116.643 86.4L113.379 74.304L99.7465 97.728L140.643 77.376L121.25 102.72L86.8825 120H68.6425L107.619 52.8H125.859L132.963 78.528L116.643 86.4ZM125.859 120L121.827 106.656L135.651 88.8L144.099 120H125.859ZM184.524 79.872C189.452 79.872 193.612 80.256 197.004 81.024C200.396 81.728 203.116 82.784 205.164 84.192C207.276 85.536 208.78 87.232 209.676 89.28C210.572 91.328 211.02 93.664 211.02 96.288C211.02 99.168 210.572 102.048 209.676 104.928C208.844 107.744 207.564 110.272 205.836 112.512C204.172 114.752 202.092 116.576 199.596 117.984C197.164 119.328 194.348 120 191.148 120H145.068L154.572 106.56H186.252C188.684 106.56 190.444 105.856 191.531 104.448C192.684 103.04 193.388 101.44 193.644 99.648C193.964 97.408 193.164 95.808 191.244 94.848C189.324 93.824 186.444 93.312 182.604 93.312H173.676C166.572 93.312 161.388 91.904 158.124 89.088C154.86 86.208 153.228 82.144 153.228 76.896C153.228 74.144 153.644 71.36 154.476 68.544C155.308 65.664 156.524 63.072 158.124 60.768C159.724 58.4 161.708 56.48 164.076 55.008C166.444 53.536 169.164 52.8 172.236 52.8H215.628L206.124 66.24H179.82C178.604 66.24 177.452 66.432 176.364 66.816C175.34 67.2 174.412 67.744 173.58 68.448C172.812 69.088 172.172 69.856 171.66 70.752C171.148 71.584 170.828 72.448 170.7 73.344C170.38 75.648 171.18 77.312 173.1 78.336C175.02 79.36 177.9 79.872 181.74 79.872H184.524ZM251.514 69.024L265.53 52.8H287.802L259.194 81.792L251.514 69.024ZM234.714 120L239.13 88.416L218.49 52.8H239.322L256.986 84.096L251.994 120H234.714ZM100.054 360.8H139.222C145.366 360.8 149.974 362.272 153.046 365.216C156.182 368.096 157.75 372.16 157.75 377.408C157.75 381.44 157.046 385.088 155.638 388.352C154.23 391.552 152.278 394.304 149.782 396.608C147.286 398.912 144.342 400.672 140.95 401.888C137.558 403.104 133.878 403.712 129.91 403.712H111.286L107.926 428H90.646L100.054 360.8ZM113.206 390.272H131.062C133.942 390.272 136.086 389.44 137.494 387.776C138.902 386.112 139.766 384.192 140.086 382.016C140.214 381.184 140.246 380.32 140.182 379.424C140.118 378.528 139.862 377.696 139.414 376.928C139.03 376.16 138.422 375.52 137.59 375.008C136.822 374.496 135.734 374.24 134.326 374.24H115.414L113.206 390.272ZM140.086 406.112L154.774 428H134.71L120.214 406.112H140.086ZM164.587 379.232L167.179 360.8H184.459L183.883 365.312L164.587 379.232ZM164.011 383.456L183.211 369.536L175.051 428H157.771L164.011 383.456ZM224.033 428H205.793L187.553 360.8H205.793L217.985 405.824L242.849 360.8H261.089L224.033 428ZM264.023 360.8H316.823L314.999 374.24H279.383L277.559 387.68H310.199L292.631 401.12H275.639L273.815 414.56H310.199L308.375 428H254.615L264.023 360.8Z" fill="black"/>
<path d="M149.014 233.872C152.598 233.872 155.414 233.264 157.462 232.048C159.574 230.832 160.822 228.816 161.206 226C161.398 224.528 160.854 223.216 159.574 222.064C158.294 220.848 156.438 220.24 154.006 220.24H127.99L122.134 206.8H161.878C165.59 206.8 168.566 207.408 170.806 208.624C173.11 209.84 174.838 211.408 175.99 213.328C177.206 215.248 177.942 217.392 178.198 219.76C178.454 222.128 178.422 224.464 178.102 226.768C177.206 233.36 174.614 238.448 170.326 242.032C166.102 245.552 160.63 247.312 153.91 247.312H145.558C142.038 247.312 139.254 247.824 137.206 248.848C135.158 249.808 133.974 251.408 133.654 253.648L132.598 260.56H167.734L173.59 274H113.878L116.374 255.856C116.95 251.824 117.942 248.432 119.35 245.68C120.758 242.864 122.518 240.592 124.63 238.864C126.806 237.072 129.302 235.792 132.118 235.024C134.934 234.256 138.038 233.872 141.43 233.872H149.014Z" fill="#41499F"/>
</svg>
